<svg
      xmlns="http://www.w3.org/2000/svg"
      xmlns:xlink="http://www.w3.org/1999/xlink"
      data-name="Layer 1"
      preserveAspectRatio="xMidYMid meet"
      version="1.0"
      viewBox="-1.6 0.0 420.6 376.6"
      zoomAndPan="magnify"
      style="fill: rgb(0, 0, 0)"
      original_string_length="5672"
      width="83.25022891843157px"
      height="74.50895488199627px"
    >
      <g id="__id1_se2owrno4i">
        <path
          d="M191,364q-14-12.11-27.2-23.39-10-8.62-19.6-16.85l-1.42-1.2c-42.05-35.79-78.37-66.7-103.45-97.61C10.85,189.84-1.59,156.32.16,119.44,3.26,53,54.64.53,117.11,0h1c35.79,0,67.23,16.71,90.51,47.59C226.05,24.43,254.92,0,299.25,0h.81c30.3.25,59.1,12.81,81.09,35.35a128.73,128.73,0,0,1,36.09,84.11c1.75,36.86-10.69,70.38-39.16,105.48-25.08,30.91-61.4,61.82-103.46,97.61l-1.48,1.26c-5.17,4.46-10.56,9.06-16.06,13.76-9.93,8.49-20.2,17.26-30.63,26.4l-9.79,8.59a12.06,12.06,0,0,1-15.92,0Z"
          style="fill: rgb(255, 255, 255)"
        />
      </g>
      <g id="__id2_se2owrno4i">
        <path
          d="M259,302.82c-13.63,11.74-28.3,24.11-43.4,37.32l-6.92,6.08h0l-6.92-6.08c-15.3-13.21-29.77-25.58-43.4-37.32C79.55,235.73,26.84,191.28,30,125.23c2.52-53.88,44.11-96.44,94-96.86h.84c46.12,0,71.7,33.75,83.86,56.61,12-22.86,37.74-56.61,83.87-56.61h.63c49.9.42,91.69,43,94.21,96.86C390.56,191.28,337.86,235.73,259,302.82Z"
          style="fill: rgb(221, 251, 101)"
        />
      </g>
      <g id="__id3_se2owrno4i">
        <path
          d="M293.2,28.37c49.9.42,91.69,43,94.21,96.86,3.15,66.05-49.55,110.5-128.39,177.59-13.63,11.74-28.3,24.11-43.4,37.32l-6.92,6.08h0l-6.92-6.08c-15.3-13.21-29.77-25.58-43.4-37.32C79.55,235.73,26.84,191.28,30,125.23c2.52-53.88,44.11-96.44,94-96.86h.84c46.12,0,71.7,33.75,83.86,56.61,12-22.86,37.74-56.61,83.87-56.61h.63m0-5.5h-.63a89.41,89.41,0,0,0-58.25,21,121.18,121.18,0,0,0-25.64,30,121.16,121.16,0,0,0-25.67-30,89.2,89.2,0,0,0-58.17-21H124c-25.7.21-50.08,10.88-68.72,30.05A110.42,110.42,0,0,0,24.5,125a114.37,114.37,0,0,0,7.92,48.18c5.61,14.29,14.23,28.5,26.36,43.45,22.7,28,56.05,56.37,94.66,89.23l1.38,1.17,18.07,15.54q12.24,10.5,25.3,21.76l6.82,6a5.51,5.51,0,0,0,7.32.06l6.92-6.08c9.69-8.48,19.21-16.61,28.41-24.48,5.19-4.43,10.09-8.62,15-12.81l1.34-1.14c38.62-32.86,72-61.24,94.67-89.23,12.13-15,20.75-29.17,26.36-43.45A114.46,114.46,0,0,0,392.9,125,110.25,110.25,0,0,0,362,52.91c-18.69-19.16-43.11-29.83-68.77-30Z"
          style="fill: inherit"
        />
      </g>
      <g id="__id4_se2owrno4i">
        <path
          d="M208.7,352.22a6,6,0,0,1-4-1.55l-6.82-6q-13.05-11.25-25.3-21.76-9.27-8-18.07-15.53l-1.37-1.17c-38.65-32.89-72-61.28-94.73-89.29-12.16-15-20.81-29.25-26.44-43.58A114.9,114.9,0,0,1,24,125,110.89,110.89,0,0,1,54.92,52.57c18.73-19.26,43.26-30,69.07-30.2h.85a89.73,89.73,0,0,1,58.49,21.1,121.64,121.64,0,0,1,25.35,29.47A120.36,120.36,0,0,1,234,43.47a89.94,89.94,0,0,1,58.57-21.1h.67c25.8.21,50.35,10.94,69.13,30.19a110.75,110.75,0,0,1,31,72.39,114.9,114.9,0,0,1-7.95,48.4c-5.63,14.33-14.27,28.59-26.44,43.58-22.73,28-56.09,56.41-94.71,89.28l-1.36,1.16c-4.86,4.19-9.76,8.38-14.95,12.81-9.17,7.83-18.64,15.93-28.41,24.47l-6.92,6.08A6,6,0,0,1,208.7,352.22ZM124,23.37c-25.54.21-49.82,10.83-68.36,29.89A110,110,0,0,0,25,125a113.89,113.89,0,0,0,7.88,48c5.59,14.24,14.19,28.41,26.29,43.32,22.67,27.94,56,56.3,94.57,89.14l1.4,1.19q8.78,7.56,18.08,15.54,12.24,10.5,25.3,21.76l6.82,6A5.13,5.13,0,0,0,212,350l6.92-6.08c9.77-8.55,19.25-16.65,28.42-24.48,5.18-4.43,10.08-8.62,15-12.81l1.34-1.14c38.61-32.86,71.93-61.22,94.6-89.17,12.1-14.91,20.7-29.08,26.29-43.32a113.89,113.89,0,0,0,7.88-48,109.76,109.76,0,0,0-30.75-71.74c-18.59-19.06-42.89-29.68-68.41-29.89l0-.5v.5h-.63a88.93,88.93,0,0,0-57.93,20.87,119.55,119.55,0,0,0-25.53,29.91.53.53,0,0,1-.86,0,120.54,120.54,0,0,0-25.56-29.9,88.66,88.66,0,0,0-57.85-20.88Zm84.7,323.35a.52.52,0,0,1-.33-.12l-6.92-6.08Q188.34,329.2,176,318.65q-9.22-7.92-18-15.45L156.68,302C78.2,235.24,26.35,191.12,29.49,125.21,32,71.05,73.53,28.29,124,27.87h.85a84.25,84.25,0,0,1,55,19.85c11.18,9.22,20.89,21.4,28.88,36.19,11.34-21.33,37-56,83.87-56h.63c24.31.2,47.48,10.33,65.23,28.53a105.27,105.27,0,0,1,29.48,68.81c3.14,65.91-48.71,110-127.2,176.83l-1.36,1.16q-7.29,6.27-14.94,12.8c-9.21,7.87-18.74,16-28.46,24.52L209,346.6A.5.5,0,0,1,208.7,346.72ZM124,28.87c-49.93.42-91,42.76-93.51,96.39-3.12,65.41,48.58,109.41,126.84,176l1.38,1.17,18,15.45q12.3,10.56,25.43,21.87l6.59,5.8,6.59-5.79c9.72-8.51,19.26-16.65,28.47-24.53q7.63-6.53,14.94-12.8l1.36-1.16c78.26-66.6,130-110.6,126.85-176a104.29,104.29,0,0,0-29.2-68.16c-17.56-18-40.47-28-64.52-28.23h-.62c-46.95,0-72.42,35.3-83.43,56.34a.49.49,0,0,1-.44.27h0a.52.52,0,0,1-.44-.27c-24.78-46.57-59-56.34-83.42-56.34Z"
          style="fill: inherit"
        />
      </g>
      <g id="__id5_se2owrno4i">
        <path
          d="M352.37,114.7c-3.12,2.69-6.48,5.52-9.93,8.54l-1.58,1.39h0l-1.59-1.39c-3.5-3-6.81-5.85-9.92-8.54-18-15.35-30.09-25.51-29.37-40.62.58-12.32,10.09-22.06,21.5-22.16h.19c10.55,0,16.4,7.73,19.19,13,2.73-5.22,8.63-13,19.18-13h.14c11.42.1,21,9.84,21.55,22.16C382.45,89.19,370.4,99.35,352.37,114.7Z"
          style="fill: rgb(52, 1, 251)"
        />
      </g>
      <g id="__id6_se2owrno4i">
        <path
          d="M360.18,51.92c11.42.1,21,9.84,21.55,22.16.72,15.11-11.33,25.27-29.36,40.62-3.12,2.69-6.48,5.52-9.93,8.54l-1.58,1.39h0l-1.59-1.39c-3.5-3-6.81-5.85-9.92-8.54-18-15.35-30.09-25.51-29.37-40.62.58-12.32,10.09-22.06,21.5-22.16h.19c10.55,0,16.4,7.73,19.19,13,2.73-5.22,8.63-13,19.18-13h.14m0-5H360A24.67,24.67,0,0,0,340.84,56a24.8,24.8,0,0,0-19.17-9.08h-.19C307.3,47,295.68,58.87,295,73.85c-.84,17.46,12.43,28.76,30.8,44.39l.32.27,4.08,3.51,5.82,5,1.55,1.36a5,5,0,0,0,6.6,0l1.58-1.39c2.2-1.92,4.37-3.77,6.47-5.57l3.42-2.93.29-.25c18.37-15.63,31.64-26.92,30.81-44.4-.7-15-12.34-26.8-26.51-26.92Z"
          style="fill: inherit"
        />
      </g>
      <g id="__id7_se2owrno4i">
        <path
          d="M208.7,243.38a82.7,82.7,0,0,1-82.23-74.88,7,7,0,0,1,7-7.71h0a7,7,0,0,1,7,6.3,68.59,68.59,0,0,0,136.6,0,7,7,0,0,1,7-6.3h0a7,7,0,0,1,7,7.71A82.7,82.7,0,0,1,208.7,243.38Zm-40-124.68a14.23,14.23,0,1,0,14.23,14.23A14.23,14.23,0,0,0,168.7,118.7Zm80,0a14.23,14.23,0,1,0,14.23,14.23A14.23,14.23,0,0,0,248.7,118.7Z"
          style="fill: inherit"
        />
      </g>
    </svg>